<svg width="25" height="25" viewBox="0 0 25 25" fill="none" xmlns="http://www.w3.org/2000/svg">
<path d="M1.56075 15C1.56013 13.8955 1.84117 12.809 2.3773 11.8433C2.91343 10.8776 3.68694 10.0646 4.62475 9.48099C4.87226 7.55108 5.81454 5.7775 7.27526 4.49215C8.73598 3.2068 10.615 2.49779 12.5607 2.49779C14.5065 2.49779 16.3855 3.2068 17.8462 4.49215C19.3069 5.7775 20.2492 7.55108 20.4967 9.48099C21.66 10.2047 22.5648 11.2774 23.082 12.546C23.5993 13.8146 23.7025 15.2141 23.3769 16.5448C23.0513 17.8756 22.3136 19.0694 21.2691 19.9559C20.2246 20.8423 18.9267 21.3761 17.5607 21.481L7.56075 21.5C4.20475 21.226 1.56075 18.422 1.56075 15ZM17.4087 19.487C18.3546 19.4143 19.2532 19.0445 19.9764 18.4305C20.6995 17.8165 21.2101 16.9897 21.4352 16.0682C21.6603 15.1467 21.5885 14.1776 21.23 13.2994C20.8714 12.4211 20.2445 11.6786 19.4387 11.178L18.6317 10.675L18.5117 9.73299C18.3248 8.28668 17.6176 6.95793 16.5223 5.99508C15.427 5.03223 14.0186 4.50118 12.5602 4.50118C11.1019 4.50118 9.69347 5.03223 8.59817 5.99508C7.50287 6.95793 6.79567 8.28668 6.60875 9.73299L6.48875 10.675L5.68375 11.178C4.87804 11.6786 4.25113 12.421 3.89254 13.2991C3.53396 14.1773 3.46204 15.1463 3.68705 16.0678C3.91207 16.9893 4.42252 17.8161 5.1455 18.4301C5.86847 19.0442 6.767 19.4141 7.71275 19.487L7.88575 19.5H17.2357L17.4087 19.487ZM13.5607 13.5V17.5H11.5607V13.5H8.56075L12.5607 8.49999L16.5607 13.5H13.5607Z" fill="white"/>
</svg>
