<svg width="46" height="88" viewBox="0 0 46 88" fill="none" xmlns="http://www.w3.org/2000/svg">
<path d="M42.4996 60.5001L41.1069 59.943L42.4996 60.5001ZM15.6807 0.139293L16.7486 17.4269L31.1861 7.85828L15.6807 0.139293ZM0.0480214 83.9304C8.75126 86.6815 16.8854 88.4103 24.3295 85.5469C31.8261 82.6633 38.1912 75.3103 43.8923 61.0572L41.1069 59.943C35.5184 73.9146 29.5834 80.3116 23.2525 82.7469C16.869 85.2023 9.64831 83.8187 0.952231 81.0699L0.0480214 83.9304ZM43.8923 61.0572C45.3685 57.3667 45.6069 53.9717 44.8646 50.9236C44.1248 47.8862 42.4392 45.3061 40.2477 43.1837C35.897 38.9701 29.43 36.4324 23.6526 35.4931C20.7503 35.0212 17.9417 34.9386 15.577 35.2865C13.2769 35.6248 11.1092 36.4141 9.85066 37.9584C9.19206 38.7665 8.817 39.7448 8.80637 40.8467C8.79599 41.9227 9.13271 43.0261 9.73592 44.1319C10.9273 46.316 13.3034 48.7742 17.0035 51.53L18.7955 49.1239C15.2205 46.4614 13.2528 44.3144 12.3696 42.6953C11.9354 41.8995 11.8021 41.3017 11.8062 40.8756C11.8101 40.4755 11.934 40.1508 12.1762 39.8536C12.7192 39.1873 13.96 38.5566 16.0136 38.2546C18.0023 37.962 20.4922 38.0186 23.1711 38.4542C28.5563 39.3297 34.3831 41.6803 38.1606 45.3387C40.0332 47.1523 41.3703 49.2542 41.9498 51.6335C42.5266 54.002 42.3807 56.7585 41.1069 59.943L43.8923 61.0572ZM17.0035 51.53C20.2076 53.9163 22.9958 55.5446 25.3999 56.4717C27.7908 57.3937 29.9404 57.6746 31.775 57.1593C33.6755 56.6255 34.9943 55.3073 35.8005 53.5637C36.5855 51.8659 36.9028 49.7423 36.8986 47.4043C36.8902 42.7203 35.5863 36.7147 33.408 30.3406C31.2217 23.9435 28.1211 17.0785 24.4425 10.6501L21.8387 12.1401C25.4266 18.41 28.447 25.1014 30.5692 31.3108C32.6992 37.5433 33.891 43.1945 33.8986 47.4096C33.9024 49.5211 33.6078 51.1576 33.0775 52.3047C32.5683 53.4058 31.8686 54.0169 30.9637 54.2711C29.993 54.5437 28.5506 54.4713 26.4793 53.6726C24.4212 52.8789 21.8772 51.4191 18.7955 49.1239L17.0035 51.53Z" fill="url(#paint0_linear_0_22)"/>
<defs>
<linearGradient id="paint0_linear_0_22" x1="6.94611" y1="93.9088" x2="57.2595" y2="33.7331" gradientUnits="userSpaceOnUse">
<stop/>
<stop offset="0.0001" stop-color="#FD3E44"/>
<stop offset="1" stop-color="#AD00FB"/>
</linearGradient>
</defs>
</svg>
