<svg width="112" height="142" viewBox="0 0 112 142" fill="none" xmlns="http://www.w3.org/2000/svg">
<path d="M32.8413 37.3898L33.7477 39.1726L32.8413 37.3898ZM85.9544 7.38046L63.7922 0.886752L69.2496 23.3267L85.9544 7.38046ZM58.2573 137.609C33.8776 129.028 14.0124 111.097 7.16153 92.0714C3.75401 82.6085 3.57418 72.9256 7.55518 63.9048C11.5432 54.8681 19.8127 46.2578 33.7477 39.1726L31.9348 35.607C17.4133 42.9904 8.35024 52.1959 3.89569 62.2898C-0.565844 72.3995 -0.298162 83.1619 3.39809 93.4266C10.7548 113.856 31.7221 132.51 56.9293 141.382L58.2573 137.609ZM33.7477 39.1726C49.1739 31.3292 62.8244 32.0159 74.0425 37.2959C85.3435 42.6149 94.3511 52.6852 100.146 63.8598C105.954 75.0596 108.39 87.0857 106.879 96.138C106.127 100.642 104.423 104.286 101.812 106.791C99.2309 109.267 95.5933 110.796 90.6171 110.79L90.6122 114.79C96.4732 114.797 101.153 112.966 104.581 109.678C107.979 106.418 109.974 101.894 110.825 96.7966C112.519 86.645 109.772 73.7322 103.697 62.0183C97.6092 50.2791 88.0351 39.4608 75.7459 33.6767C63.3738 27.8535 48.4255 27.2224 31.9348 35.607L33.7477 39.1726ZM90.6171 110.79C81.7487 110.779 73.6597 106.092 67.0249 98.4348C60.3902 90.7778 55.3499 80.2933 52.6474 69.1368C49.9447 57.9801 49.6162 46.3015 52.2453 36.2809C54.8681 26.2848 60.3969 18.0361 69.3764 13.4131L67.5454 9.85673C57.3271 15.1176 51.2143 24.4494 48.3763 35.2658C45.5448 46.0577 45.9365 58.4235 48.7598 70.0786C51.5832 81.734 56.8746 92.8288 64.0019 101.054C71.1292 109.28 80.2328 114.777 90.6122 114.79L90.6171 110.79Z" fill="url(#paint0_linear_0_21)"/>
<defs>
<linearGradient id="paint0_linear_0_21" x1="37.2919" y1="150.966" x2="114.746" y2="21.8104" gradientUnits="userSpaceOnUse">
<stop/>
<stop offset="0.0001" stop-color="#FD3E44"/>
<stop offset="1" stop-color="#AD00FB"/>
</linearGradient>
</defs>
</svg>
